<mxfile host="app.diagrams.net" modified="2022-06-09T01:23:40.244Z" agent="5.0 (Windows)" etag="gQnmrhHO-0247SIAzM_O" version="19.0.3" type="github" pages="4">
  <diagram id="D16m4kfWFw2HEZQcjknS" name="Primary Mod List">
    <mxGraphModel dx="1182" dy="732" grid="1" gridSize="10" guides="1" tooltips="1" connect="1" arrows="1" fold="1" page="1" pageScale="1" pageWidth="850" pageHeight="1100" math="0" shadow="0">
      <root>
        <mxCell id="0" />
        <mxCell id="1" parent="0" />
        <mxCell id="B4j-vTwKo_DGj5agFie8-1" value="Essentials/Progression-Used Mods" style="swimlane;fontStyle=0;childLayout=stackLayout;horizontal=1;startSize=30;horizontalStack=0;resizeParent=1;resizeParentMax=0;resizeLast=0;collapsible=1;marginBottom=0;" parent="1" vertex="1">
          <mxGeometry x="280" y="10" width="250" height="350" as="geometry" />
        </mxCell>
        <mxCell id="B4j-vTwKo_DGj5agFie8-2" value="Silent Gear" style="text;strokeColor=#6c8ebf;fillColor=#dae8fc;align=left;verticalAlign=middle;spacingLeft=4;spacingRight=4;overflow=hidden;points=[[0,0.5],[1,0.5]];portConstraint=eastwest;rotatable=0;" parent="B4j-vTwKo_DGj5agFie8-1" vertex="1">
          <mxGeometry y="30" width="250" height="30" as="geometry" />
        </mxCell>
        <mxCell id="B4j-vTwKo_DGj5agFie8-4" value="Create" style="text;strokeColor=#666666;fillColor=#f5f5f5;align=left;verticalAlign=middle;spacingLeft=4;spacingRight=4;overflow=hidden;points=[[0,0.5],[1,0.5]];portConstraint=eastwest;rotatable=0;fontColor=#333333;" parent="B4j-vTwKo_DGj5agFie8-1" vertex="1">
          <mxGeometry y="60" width="250" height="30" as="geometry" />
        </mxCell>
        <mxCell id="2ArhLiDelmDyG_pQbxqI-2" value="Hexerei&#xa;?Need to see if CraftTweaker works&#xa;=CT can support!" style="text;strokeColor=#6c8ebf;fillColor=#dae8fc;align=left;verticalAlign=middle;spacingLeft=4;spacingRight=4;overflow=hidden;points=[[0,0.5],[1,0.5]];portConstraint=eastwest;rotatable=0;whiteSpace=wrap;" parent="B4j-vTwKo_DGj5agFie8-1" vertex="1">
          <mxGeometry y="90" width="250" height="80" as="geometry" />
        </mxCell>
        <mxCell id="EsS47KtiDPzlkTfj5x5h-16" value="Malum" style="text;align=left;verticalAlign=middle;spacingLeft=4;spacingRight=4;overflow=hidden;points=[[0,0.5],[1,0.5]];portConstraint=eastwest;rotatable=0;whiteSpace=wrap;" parent="B4j-vTwKo_DGj5agFie8-1" vertex="1">
          <mxGeometry y="170" width="250" height="30" as="geometry" />
        </mxCell>
        <mxCell id="EsS47KtiDPzlkTfj5x5h-17" value="Gobber" style="text;align=left;verticalAlign=middle;spacingLeft=4;spacingRight=4;overflow=hidden;points=[[0,0.5],[1,0.5]];portConstraint=eastwest;rotatable=0;whiteSpace=wrap;fillColor=#d80073;fontColor=#ffffff;strokeColor=#A50040;" parent="B4j-vTwKo_DGj5agFie8-1" vertex="1">
          <mxGeometry y="200" width="250" height="30" as="geometry" />
        </mxCell>
        <mxCell id="EsS47KtiDPzlkTfj5x5h-22" value="Besmirchment 2" style="text;align=left;verticalAlign=middle;spacingLeft=4;spacingRight=4;overflow=hidden;points=[[0,0.5],[1,0.5]];portConstraint=eastwest;rotatable=0;whiteSpace=wrap;" parent="B4j-vTwKo_DGj5agFie8-1" vertex="1">
          <mxGeometry y="230" width="250" height="30" as="geometry" />
        </mxCell>
        <mxCell id="EsS47KtiDPzlkTfj5x5h-30" value="Multiblocked" style="text;align=left;verticalAlign=middle;spacingLeft=4;spacingRight=4;overflow=hidden;points=[[0,0.5],[1,0.5]];portConstraint=eastwest;rotatable=0;whiteSpace=wrap;fillColor=#ffe6cc;strokeColor=#d79b00;" parent="B4j-vTwKo_DGj5agFie8-1" vertex="1">
          <mxGeometry y="260" width="250" height="30" as="geometry" />
        </mxCell>
        <mxCell id="EsS47KtiDPzlkTfj5x5h-36" value="Mystical Agriculture" style="text;align=left;verticalAlign=middle;spacingLeft=4;spacingRight=4;overflow=hidden;points=[[0,0.5],[1,0.5]];portConstraint=eastwest;rotatable=0;whiteSpace=wrap;fillColor=#6a00ff;strokeColor=#3700CC;fontColor=#ffffff;" parent="B4j-vTwKo_DGj5agFie8-1" vertex="1">
          <mxGeometry y="290" width="250" height="30" as="geometry" />
        </mxCell>
        <mxCell id="EsS47KtiDPzlkTfj5x5h-38" value="Botania" style="text;align=left;verticalAlign=middle;spacingLeft=4;spacingRight=4;overflow=hidden;points=[[0,0.5],[1,0.5]];portConstraint=eastwest;rotatable=0;whiteSpace=wrap;" parent="B4j-vTwKo_DGj5agFie8-1" vertex="1">
          <mxGeometry y="320" width="250" height="30" as="geometry" />
        </mxCell>
        <mxCell id="B4j-vTwKo_DGj5agFie8-5" value="Storage Mods" style="swimlane;fontStyle=0;childLayout=stackLayout;horizontal=1;startSize=30;horizontalStack=0;resizeParent=1;resizeParentMax=0;resizeLast=0;collapsible=1;marginBottom=0;" parent="1" vertex="1">
          <mxGeometry x="570" y="170" width="260" height="150" as="geometry" />
        </mxCell>
        <mxCell id="B4j-vTwKo_DGj5agFie8-6" value="Sophisticated Backpacks/Storage" style="text;strokeColor=#666666;fillColor=#f5f5f5;align=left;verticalAlign=middle;spacingLeft=4;spacingRight=4;overflow=hidden;points=[[0,0.5],[1,0.5]];portConstraint=eastwest;rotatable=0;fontColor=#333333;" parent="B4j-vTwKo_DGj5agFie8-5" vertex="1">
          <mxGeometry y="30" width="260" height="30" as="geometry" />
        </mxCell>
        <mxCell id="B4j-vTwKo_DGj5agFie8-3" value="Tool Belt" style="text;strokeColor=#6c8ebf;fillColor=#dae8fc;align=left;verticalAlign=middle;spacingLeft=4;spacingRight=4;overflow=hidden;points=[[0,0.5],[1,0.5]];portConstraint=eastwest;rotatable=0;" parent="B4j-vTwKo_DGj5agFie8-5" vertex="1">
          <mxGeometry y="60" width="260" height="30" as="geometry" />
        </mxCell>
        <mxCell id="B4j-vTwKo_DGj5agFie8-7" value="Occultism" style="text;strokeColor=none;fillColor=none;align=left;verticalAlign=middle;spacingLeft=4;spacingRight=4;overflow=hidden;points=[[0,0.5],[1,0.5]];portConstraint=eastwest;rotatable=0;" parent="B4j-vTwKo_DGj5agFie8-5" vertex="1">
          <mxGeometry y="90" width="260" height="30" as="geometry" />
        </mxCell>
        <mxCell id="B4j-vTwKo_DGj5agFie8-8" value="Item 3" style="text;strokeColor=none;fillColor=none;align=left;verticalAlign=middle;spacingLeft=4;spacingRight=4;overflow=hidden;points=[[0,0.5],[1,0.5]];portConstraint=eastwest;rotatable=0;" parent="B4j-vTwKo_DGj5agFie8-5" vertex="1">
          <mxGeometry y="120" width="260" height="30" as="geometry" />
        </mxCell>
        <mxCell id="B4j-vTwKo_DGj5agFie8-9" value="Progression Maybes" style="swimlane;fontStyle=0;childLayout=stackLayout;horizontal=1;startSize=30;horizontalStack=0;resizeParent=1;resizeParentMax=0;resizeLast=0;collapsible=1;marginBottom=0;" parent="1" vertex="1">
          <mxGeometry x="30" y="290" width="220" height="460" as="geometry" />
        </mxCell>
        <mxCell id="B4j-vTwKo_DGj5agFie8-10" value="Druidcraft" style="text;strokeColor=none;fillColor=none;align=left;verticalAlign=middle;spacingLeft=4;spacingRight=4;overflow=hidden;points=[[0,0.5],[1,0.5]];portConstraint=eastwest;rotatable=0;" parent="B4j-vTwKo_DGj5agFie8-9" vertex="1">
          <mxGeometry y="30" width="220" height="30" as="geometry" />
        </mxCell>
        <mxCell id="B4j-vTwKo_DGj5agFie8-11" value="Occultism" style="text;strokeColor=#d79b00;fillColor=#ffe6cc;align=left;verticalAlign=middle;spacingLeft=4;spacingRight=4;overflow=hidden;points=[[0,0.5],[1,0.5]];portConstraint=eastwest;rotatable=0;" parent="B4j-vTwKo_DGj5agFie8-9" vertex="1">
          <mxGeometry y="60" width="220" height="30" as="geometry" />
        </mxCell>
        <mxCell id="B4j-vTwKo_DGj5agFie8-12" value="Tough as Nails" style="text;strokeColor=#6c8ebf;fillColor=#dae8fc;align=left;verticalAlign=middle;spacingLeft=4;spacingRight=4;overflow=hidden;points=[[0,0.5],[1,0.5]];portConstraint=eastwest;rotatable=0;" parent="B4j-vTwKo_DGj5agFie8-9" vertex="1">
          <mxGeometry y="90" width="220" height="30" as="geometry" />
        </mxCell>
        <mxCell id="ZFpCo6Y6okGIEXORFpAM-1" value="Tinker&#39;s Construct" style="text;strokeColor=none;fillColor=none;align=left;verticalAlign=middle;spacingLeft=4;spacingRight=4;overflow=hidden;points=[[0,0.5],[1,0.5]];portConstraint=eastwest;rotatable=0;" parent="B4j-vTwKo_DGj5agFie8-9" vertex="1">
          <mxGeometry y="120" width="220" height="30" as="geometry" />
        </mxCell>
        <mxCell id="2ArhLiDelmDyG_pQbxqI-1" value="Apotheosis&#xa;+Enchanting buff&#xa;+Potion buff&#xa;-Conflicts with Quark&#39;s enchanting&#xa;" style="text;strokeColor=none;fillColor=none;align=left;verticalAlign=middle;spacingLeft=4;spacingRight=4;overflow=hidden;points=[[0,0.5],[1,0.5]];portConstraint=eastwest;rotatable=0;rounded=0;" parent="B4j-vTwKo_DGj5agFie8-9" vertex="1">
          <mxGeometry y="150" width="220" height="70" as="geometry" />
        </mxCell>
        <mxCell id="EsS47KtiDPzlkTfj5x5h-1" value="Mana and Artifice" style="text;strokeColor=none;fillColor=none;align=left;verticalAlign=middle;spacingLeft=4;spacingRight=4;overflow=hidden;points=[[0,0.5],[1,0.5]];portConstraint=eastwest;rotatable=0;rounded=0;" parent="B4j-vTwKo_DGj5agFie8-9" vertex="1">
          <mxGeometry y="220" width="220" height="30" as="geometry" />
        </mxCell>
        <mxCell id="EsS47KtiDPzlkTfj5x5h-2" value="Nature&#39;s Aura" style="text;strokeColor=none;fillColor=none;align=left;verticalAlign=middle;spacingLeft=4;spacingRight=4;overflow=hidden;points=[[0,0.5],[1,0.5]];portConstraint=eastwest;rotatable=0;rounded=0;" parent="B4j-vTwKo_DGj5agFie8-9" vertex="1">
          <mxGeometry y="250" width="220" height="30" as="geometry" />
        </mxCell>
        <mxCell id="EsS47KtiDPzlkTfj5x5h-27" value="Schools of Magic" style="text;strokeColor=none;fillColor=none;align=left;verticalAlign=middle;spacingLeft=4;spacingRight=4;overflow=hidden;points=[[0,0.5],[1,0.5]];portConstraint=eastwest;rotatable=0;rounded=0;" parent="B4j-vTwKo_DGj5agFie8-9" vertex="1">
          <mxGeometry y="280" width="220" height="30" as="geometry" />
        </mxCell>
        <mxCell id="EsS47KtiDPzlkTfj5x5h-28" value="Hex Casting" style="text;strokeColor=none;fillColor=none;align=left;verticalAlign=middle;spacingLeft=4;spacingRight=4;overflow=hidden;points=[[0,0.5],[1,0.5]];portConstraint=eastwest;rotatable=0;rounded=0;" parent="B4j-vTwKo_DGj5agFie8-9" vertex="1">
          <mxGeometry y="310" width="220" height="30" as="geometry" />
        </mxCell>
        <mxCell id="EsS47KtiDPzlkTfj5x5h-29" value="Primal Magick" style="text;strokeColor=#6c8ebf;fillColor=#dae8fc;align=left;verticalAlign=middle;spacingLeft=4;spacingRight=4;overflow=hidden;points=[[0,0.5],[1,0.5]];portConstraint=eastwest;rotatable=0;rounded=0;" parent="B4j-vTwKo_DGj5agFie8-9" vertex="1">
          <mxGeometry y="340" width="220" height="30" as="geometry" />
        </mxCell>
        <mxCell id="EsS47KtiDPzlkTfj5x5h-39" value="Ars Noveau" style="text;strokeColor=#006EAF;fillColor=#1ba1e2;align=left;verticalAlign=middle;spacingLeft=4;spacingRight=4;overflow=hidden;points=[[0,0.5],[1,0.5]];portConstraint=eastwest;rotatable=0;rounded=0;fontColor=#ffffff;" parent="B4j-vTwKo_DGj5agFie8-9" vertex="1">
          <mxGeometry y="370" width="220" height="30" as="geometry" />
        </mxCell>
        <mxCell id="EsS47KtiDPzlkTfj5x5h-40" value="Forbidden and Arcanus" style="text;strokeColor=#006EAF;fillColor=#1ba1e2;align=left;verticalAlign=middle;spacingLeft=4;spacingRight=4;overflow=hidden;points=[[0,0.5],[1,0.5]];portConstraint=eastwest;rotatable=0;rounded=0;fontColor=#ffffff;" parent="B4j-vTwKo_DGj5agFie8-9" vertex="1">
          <mxGeometry y="400" width="220" height="30" as="geometry" />
        </mxCell>
        <mxCell id="EsS47KtiDPzlkTfj5x5h-41" value="Mana and Artifice" style="text;strokeColor=#006EAF;fillColor=#1ba1e2;align=left;verticalAlign=middle;spacingLeft=4;spacingRight=4;overflow=hidden;points=[[0,0.5],[1,0.5]];portConstraint=eastwest;rotatable=0;rounded=0;fontColor=#ffffff;" parent="B4j-vTwKo_DGj5agFie8-9" vertex="1">
          <mxGeometry y="430" width="220" height="30" as="geometry" />
        </mxCell>
        <mxCell id="B4j-vTwKo_DGj5agFie8-14" value="Utility Mods" style="swimlane;fontStyle=0;childLayout=stackLayout;horizontal=1;startSize=30;horizontalStack=0;resizeParent=1;resizeParentMax=0;resizeLast=0;collapsible=1;marginBottom=0;" parent="1" vertex="1">
          <mxGeometry x="570" y="40" width="260" height="120" as="geometry" />
        </mxCell>
        <mxCell id="B4j-vTwKo_DGj5agFie8-15" value="Loot Beams" style="text;strokeColor=none;fillColor=none;align=left;verticalAlign=middle;spacingLeft=4;spacingRight=4;overflow=hidden;points=[[0,0.5],[1,0.5]];portConstraint=eastwest;rotatable=0;" parent="B4j-vTwKo_DGj5agFie8-14" vertex="1">
          <mxGeometry y="30" width="260" height="30" as="geometry" />
        </mxCell>
        <mxCell id="B4j-vTwKo_DGj5agFie8-16" value="Item 2" style="text;strokeColor=none;fillColor=none;align=left;verticalAlign=middle;spacingLeft=4;spacingRight=4;overflow=hidden;points=[[0,0.5],[1,0.5]];portConstraint=eastwest;rotatable=0;" parent="B4j-vTwKo_DGj5agFie8-14" vertex="1">
          <mxGeometry y="60" width="260" height="30" as="geometry" />
        </mxCell>
        <mxCell id="B4j-vTwKo_DGj5agFie8-17" value="Item 3" style="text;strokeColor=none;fillColor=none;align=left;verticalAlign=middle;spacingLeft=4;spacingRight=4;overflow=hidden;points=[[0,0.5],[1,0.5]];portConstraint=eastwest;rotatable=0;" parent="B4j-vTwKo_DGj5agFie8-14" vertex="1">
          <mxGeometry y="90" width="260" height="30" as="geometry" />
        </mxCell>
        <mxCell id="EsS47KtiDPzlkTfj5x5h-3" value="Mob Farming/Utility" style="swimlane;fontStyle=0;childLayout=stackLayout;horizontal=1;startSize=30;horizontalStack=0;resizeParent=1;resizeParentMax=0;resizeLast=0;collapsible=1;marginBottom=0;rounded=0;fillColor=none;" parent="1" vertex="1">
          <mxGeometry x="570" y="330" width="260" height="120" as="geometry" />
        </mxCell>
        <mxCell id="EsS47KtiDPzlkTfj5x5h-4" value="Spirit&#xa;+Create Mob Spawners&#xa;" style="text;strokeColor=none;fillColor=none;align=left;verticalAlign=middle;spacingLeft=4;spacingRight=4;overflow=hidden;points=[[0,0.5],[1,0.5]];portConstraint=eastwest;rotatable=0;rounded=0;" parent="EsS47KtiDPzlkTfj5x5h-3" vertex="1">
          <mxGeometry y="30" width="260" height="30" as="geometry" />
        </mxCell>
        <mxCell id="EsS47KtiDPzlkTfj5x5h-5" value="Apotheosis" style="text;strokeColor=none;fillColor=none;align=left;verticalAlign=middle;spacingLeft=4;spacingRight=4;overflow=hidden;points=[[0,0.5],[1,0.5]];portConstraint=eastwest;rotatable=0;rounded=0;" parent="EsS47KtiDPzlkTfj5x5h-3" vertex="1">
          <mxGeometry y="60" width="260" height="30" as="geometry" />
        </mxCell>
        <mxCell id="EsS47KtiDPzlkTfj5x5h-6" value="Agricraft&#xa;+Crop genetics" style="text;strokeColor=none;fillColor=none;align=left;verticalAlign=middle;spacingLeft=4;spacingRight=4;overflow=hidden;points=[[0,0.5],[1,0.5]];portConstraint=eastwest;rotatable=0;rounded=0;" parent="EsS47KtiDPzlkTfj5x5h-3" vertex="1">
          <mxGeometry y="90" width="260" height="30" as="geometry" />
        </mxCell>
        <mxCell id="EsS47KtiDPzlkTfj5x5h-8" value="Age Availablity Key" style="swimlane;fontStyle=0;childLayout=stackLayout;horizontal=1;startSize=30;horizontalStack=0;resizeParent=1;resizeParentMax=0;resizeLast=0;collapsible=1;marginBottom=0;rounded=0;fillColor=none;" parent="1" vertex="1">
          <mxGeometry x="40" y="10" width="140" height="270" as="geometry" />
        </mxCell>
        <mxCell id="EsS47KtiDPzlkTfj5x5h-9" value="Immediate Availability" style="text;strokeColor=#6c8ebf;fillColor=#dae8fc;align=left;verticalAlign=middle;spacingLeft=4;spacingRight=4;overflow=hidden;points=[[0,0.5],[1,0.5]];portConstraint=eastwest;rotatable=0;rounded=0;labelBackgroundColor=none;" parent="EsS47KtiDPzlkTfj5x5h-8" vertex="1">
          <mxGeometry y="30" width="140" height="30" as="geometry" />
        </mxCell>
        <mxCell id="EsS47KtiDPzlkTfj5x5h-10" value="Copper Age" style="text;strokeColor=#d79b00;fillColor=#ffe6cc;align=left;verticalAlign=middle;spacingLeft=4;spacingRight=4;overflow=hidden;points=[[0,0.5],[1,0.5]];portConstraint=eastwest;rotatable=0;rounded=0;" parent="EsS47KtiDPzlkTfj5x5h-8" vertex="1">
          <mxGeometry y="60" width="140" height="30" as="geometry" />
        </mxCell>
        <mxCell id="EsS47KtiDPzlkTfj5x5h-11" value="Iron Age" style="text;strokeColor=#666666;fillColor=#f5f5f5;align=left;verticalAlign=middle;spacingLeft=4;spacingRight=4;overflow=hidden;points=[[0,0.5],[1,0.5]];portConstraint=eastwest;rotatable=0;rounded=0;fontColor=#333333;" parent="EsS47KtiDPzlkTfj5x5h-8" vertex="1">
          <mxGeometry y="90" width="140" height="30" as="geometry" />
        </mxCell>
        <mxCell id="EsS47KtiDPzlkTfj5x5h-18" value="Apprentice Mage" style="text;strokeColor=#006EAF;fillColor=#1ba1e2;align=left;verticalAlign=middle;spacingLeft=4;spacingRight=4;overflow=hidden;points=[[0,0.5],[1,0.5]];portConstraint=eastwest;rotatable=0;rounded=0;fontColor=#ffffff;" parent="EsS47KtiDPzlkTfj5x5h-8" vertex="1">
          <mxGeometry y="120" width="140" height="30" as="geometry" />
        </mxCell>
        <mxCell id="EsS47KtiDPzlkTfj5x5h-19" style="text;strokeColor=#666666;fillColor=#f5f5f5;align=left;verticalAlign=middle;spacingLeft=4;spacingRight=4;overflow=hidden;points=[[0,0.5],[1,0.5]];portConstraint=eastwest;rotatable=0;rounded=0;fontColor=#333333;" parent="EsS47KtiDPzlkTfj5x5h-8" vertex="1">
          <mxGeometry y="150" width="140" height="30" as="geometry" />
        </mxCell>
        <mxCell id="EsS47KtiDPzlkTfj5x5h-20" value="Late Game" style="text;strokeColor=#3700CC;fillColor=#6a00ff;align=left;verticalAlign=middle;spacingLeft=4;spacingRight=4;overflow=hidden;points=[[0,0.5],[1,0.5]];portConstraint=eastwest;rotatable=0;rounded=0;fontColor=#ffffff;" parent="EsS47KtiDPzlkTfj5x5h-8" vertex="1">
          <mxGeometry y="180" width="140" height="30" as="geometry" />
        </mxCell>
        <mxCell id="EsS47KtiDPzlkTfj5x5h-21" value="LateLate Game" style="text;strokeColor=#A50040;fillColor=#d80073;align=left;verticalAlign=middle;spacingLeft=4;spacingRight=4;overflow=hidden;points=[[0,0.5],[1,0.5]];portConstraint=eastwest;rotatable=0;rounded=0;fontColor=#ffffff;" parent="EsS47KtiDPzlkTfj5x5h-8" vertex="1">
          <mxGeometry y="210" width="140" height="30" as="geometry" />
        </mxCell>
        <mxCell id="EsS47KtiDPzlkTfj5x5h-37" value="Creative Crafting" style="text;strokeColor=#6F0000;fillColor=#a20025;align=left;verticalAlign=middle;spacingLeft=4;spacingRight=4;overflow=hidden;points=[[0,0.5],[1,0.5]];portConstraint=eastwest;rotatable=0;rounded=0;fontColor=#ffffff;" parent="EsS47KtiDPzlkTfj5x5h-8" vertex="1">
          <mxGeometry y="240" width="140" height="30" as="geometry" />
        </mxCell>
        <mxCell id="EsS47KtiDPzlkTfj5x5h-12" value="For Immersion" style="swimlane;fontStyle=0;childLayout=stackLayout;horizontal=1;startSize=30;horizontalStack=0;resizeParent=1;resizeParentMax=0;resizeLast=0;collapsible=1;marginBottom=0;rounded=0;labelBackgroundColor=none;fillColor=none;" parent="1" vertex="1">
          <mxGeometry x="570" y="460" width="260" height="150" as="geometry" />
        </mxCell>
        <mxCell id="EsS47KtiDPzlkTfj5x5h-13" value="Dynamic Trees" style="text;strokeColor=none;fillColor=none;align=left;verticalAlign=middle;spacingLeft=4;spacingRight=4;overflow=hidden;points=[[0,0.5],[1,0.5]];portConstraint=eastwest;rotatable=0;rounded=0;labelBackgroundColor=none;" parent="EsS47KtiDPzlkTfj5x5h-12" vertex="1">
          <mxGeometry y="30" width="260" height="30" as="geometry" />
        </mxCell>
        <mxCell id="EsS47KtiDPzlkTfj5x5h-14" value="Whisperwoods" style="text;strokeColor=none;fillColor=none;align=left;verticalAlign=middle;spacingLeft=4;spacingRight=4;overflow=hidden;points=[[0,0.5],[1,0.5]];portConstraint=eastwest;rotatable=0;rounded=0;labelBackgroundColor=none;" parent="EsS47KtiDPzlkTfj5x5h-12" vertex="1">
          <mxGeometry y="60" width="260" height="30" as="geometry" />
        </mxCell>
        <mxCell id="EsS47KtiDPzlkTfj5x5h-15" value="YUNG&#39;s mods (ALL OF THEM!!)" style="text;strokeColor=none;fillColor=none;align=left;verticalAlign=middle;spacingLeft=4;spacingRight=4;overflow=hidden;points=[[0,0.5],[1,0.5]];portConstraint=eastwest;rotatable=0;rounded=0;labelBackgroundColor=none;" parent="EsS47KtiDPzlkTfj5x5h-12" vertex="1">
          <mxGeometry y="90" width="260" height="30" as="geometry" />
        </mxCell>
        <mxCell id="Sc0oKfuL5u5qFrWzhuEP-1" value="Falling Leaves" style="text;strokeColor=none;fillColor=none;align=left;verticalAlign=middle;spacingLeft=4;spacingRight=4;overflow=hidden;points=[[0,0.5],[1,0.5]];portConstraint=eastwest;rotatable=0;rounded=0;labelBackgroundColor=none;" vertex="1" parent="EsS47KtiDPzlkTfj5x5h-12">
          <mxGeometry y="120" width="260" height="30" as="geometry" />
        </mxCell>
        <mxCell id="EsS47KtiDPzlkTfj5x5h-23" value="For Fun" style="swimlane;fontStyle=0;childLayout=stackLayout;horizontal=1;startSize=30;horizontalStack=0;resizeParent=1;resizeParentMax=0;resizeLast=0;collapsible=1;marginBottom=0;rounded=0;labelBackgroundColor=none;fillColor=none;" parent="1" vertex="1">
          <mxGeometry x="570" y="640" width="260" height="150" as="geometry" />
        </mxCell>
        <mxCell id="EsS47KtiDPzlkTfj5x5h-24" value="Vampirism/Werewolfism" style="text;strokeColor=none;fillColor=none;align=left;verticalAlign=middle;spacingLeft=4;spacingRight=4;overflow=hidden;points=[[0,0.5],[1,0.5]];portConstraint=eastwest;rotatable=0;rounded=0;labelBackgroundColor=none;" parent="EsS47KtiDPzlkTfj5x5h-23" vertex="1">
          <mxGeometry y="30" width="260" height="30" as="geometry" />
        </mxCell>
        <mxCell id="EsS47KtiDPzlkTfj5x5h-25" value="Everlasting Abilities" style="text;strokeColor=none;fillColor=none;align=left;verticalAlign=middle;spacingLeft=4;spacingRight=4;overflow=hidden;points=[[0,0.5],[1,0.5]];portConstraint=eastwest;rotatable=0;rounded=0;labelBackgroundColor=none;" parent="EsS47KtiDPzlkTfj5x5h-23" vertex="1">
          <mxGeometry y="60" width="260" height="30" as="geometry" />
        </mxCell>
        <mxCell id="EsS47KtiDPzlkTfj5x5h-26" value="Dragon Survival" style="text;strokeColor=none;fillColor=none;align=left;verticalAlign=middle;spacingLeft=4;spacingRight=4;overflow=hidden;points=[[0,0.5],[1,0.5]];portConstraint=eastwest;rotatable=0;rounded=0;labelBackgroundColor=none;" parent="EsS47KtiDPzlkTfj5x5h-23" vertex="1">
          <mxGeometry y="90" width="260" height="30" as="geometry" />
        </mxCell>
        <mxCell id="EsS47KtiDPzlkTfj5x5h-35" value="Dragon Pets" style="text;strokeColor=none;fillColor=none;align=left;verticalAlign=middle;spacingLeft=4;spacingRight=4;overflow=hidden;points=[[0,0.5],[1,0.5]];portConstraint=eastwest;rotatable=0;rounded=0;labelBackgroundColor=none;" parent="EsS47KtiDPzlkTfj5x5h-23" vertex="1">
          <mxGeometry y="120" width="260" height="30" as="geometry" />
        </mxCell>
        <mxCell id="EsS47KtiDPzlkTfj5x5h-31" value="Maybes" style="swimlane;fontStyle=0;childLayout=stackLayout;horizontal=1;startSize=30;horizontalStack=0;resizeParent=1;resizeParentMax=0;resizeLast=0;collapsible=1;marginBottom=0;rounded=0;labelBackgroundColor=none;fillColor=none;" parent="1" vertex="1">
          <mxGeometry x="425" y="670" width="140" height="120" as="geometry" />
        </mxCell>
        <mxCell id="EsS47KtiDPzlkTfj5x5h-32" value="The Mysthical" style="text;strokeColor=none;fillColor=none;align=left;verticalAlign=middle;spacingLeft=4;spacingRight=4;overflow=hidden;points=[[0,0.5],[1,0.5]];portConstraint=eastwest;rotatable=0;rounded=0;labelBackgroundColor=none;" parent="EsS47KtiDPzlkTfj5x5h-31" vertex="1">
          <mxGeometry y="30" width="140" height="30" as="geometry" />
        </mxCell>
        <mxCell id="EsS47KtiDPzlkTfj5x5h-33" value="Item 2" style="text;strokeColor=none;fillColor=none;align=left;verticalAlign=middle;spacingLeft=4;spacingRight=4;overflow=hidden;points=[[0,0.5],[1,0.5]];portConstraint=eastwest;rotatable=0;rounded=0;labelBackgroundColor=none;" parent="EsS47KtiDPzlkTfj5x5h-31" vertex="1">
          <mxGeometry y="60" width="140" height="30" as="geometry" />
        </mxCell>
        <mxCell id="EsS47KtiDPzlkTfj5x5h-34" value="Item 3" style="text;strokeColor=none;fillColor=none;align=left;verticalAlign=middle;spacingLeft=4;spacingRight=4;overflow=hidden;points=[[0,0.5],[1,0.5]];portConstraint=eastwest;rotatable=0;rounded=0;labelBackgroundColor=none;" parent="EsS47KtiDPzlkTfj5x5h-31" vertex="1">
          <mxGeometry y="90" width="140" height="30" as="geometry" />
        </mxCell>
      </root>
    </mxGraphModel>
  </diagram>
  <diagram id="C5RBs43oDa-KdzZeNtuy" name="Progression - Early Age">
    <mxGraphModel dx="1038" dy="537" grid="1" gridSize="10" guides="1" tooltips="1" connect="1" arrows="1" fold="1" page="1" pageScale="1" pageWidth="827" pageHeight="1169" math="0" shadow="0">
      <root>
        <mxCell id="WIyWlLk6GJQsqaUBKTNV-0" />
        <mxCell id="WIyWlLk6GJQsqaUBKTNV-1" parent="WIyWlLk6GJQsqaUBKTNV-0" />
        <mxCell id="2fUdlbbrRsZrhQuUBlLO-6" value="" style="edgeStyle=orthogonalEdgeStyle;rounded=0;orthogonalLoop=1;jettySize=auto;html=1;" parent="WIyWlLk6GJQsqaUBKTNV-1" source="WIyWlLk6GJQsqaUBKTNV-3" edge="1">
          <mxGeometry relative="1" as="geometry">
            <mxPoint x="360" y="80" as="targetPoint" />
          </mxGeometry>
        </mxCell>
        <mxCell id="WIyWlLk6GJQsqaUBKTNV-3" value="Early Age" style="rounded=1;whiteSpace=wrap;html=1;fontSize=12;glass=0;strokeWidth=1;shadow=0;" parent="WIyWlLk6GJQsqaUBKTNV-1" vertex="1">
          <mxGeometry x="160" y="60" width="120" height="40" as="geometry" />
        </mxCell>
        <mxCell id="2fUdlbbrRsZrhQuUBlLO-2" style="edgeStyle=orthogonalEdgeStyle;rounded=0;orthogonalLoop=1;jettySize=auto;html=1;entryX=0;entryY=0.5;entryDx=0;entryDy=0;" parent="WIyWlLk6GJQsqaUBKTNV-1" source="2fUdlbbrRsZrhQuUBlLO-1" target="WIyWlLk6GJQsqaUBKTNV-3" edge="1">
          <mxGeometry relative="1" as="geometry" />
        </mxCell>
        <mxCell id="2fUdlbbrRsZrhQuUBlLO-1" value="Start" style="triangle;whiteSpace=wrap;html=1;" parent="WIyWlLk6GJQsqaUBKTNV-1" vertex="1">
          <mxGeometry x="50" y="40" width="60" height="80" as="geometry" />
        </mxCell>
        <mxCell id="2fUdlbbrRsZrhQuUBlLO-9" value="" style="edgeStyle=orthogonalEdgeStyle;rounded=0;orthogonalLoop=1;jettySize=auto;html=1;" parent="WIyWlLk6GJQsqaUBKTNV-1" source="2fUdlbbrRsZrhQuUBlLO-7" target="2fUdlbbrRsZrhQuUBlLO-8" edge="1">
          <mxGeometry relative="1" as="geometry" />
        </mxCell>
        <mxCell id="2fUdlbbrRsZrhQuUBlLO-11" value="" style="edgeStyle=orthogonalEdgeStyle;rounded=0;orthogonalLoop=1;jettySize=auto;html=1;" parent="WIyWlLk6GJQsqaUBKTNV-1" source="2fUdlbbrRsZrhQuUBlLO-7" target="2fUdlbbrRsZrhQuUBlLO-10" edge="1">
          <mxGeometry relative="1" as="geometry" />
        </mxCell>
        <mxCell id="2fUdlbbrRsZrhQuUBlLO-7" value="&lt;div&gt;Copper Age&lt;/div&gt;" style="rounded=1;whiteSpace=wrap;html=1;" parent="WIyWlLk6GJQsqaUBKTNV-1" vertex="1">
          <mxGeometry x="360" y="60" width="120" height="40" as="geometry" />
        </mxCell>
        <mxCell id="2fUdlbbrRsZrhQuUBlLO-15" style="edgeStyle=orthogonalEdgeStyle;rounded=0;orthogonalLoop=1;jettySize=auto;html=1;exitX=1;exitY=0.5;exitDx=0;exitDy=0;" parent="WIyWlLk6GJQsqaUBKTNV-1" source="2fUdlbbrRsZrhQuUBlLO-8" target="2fUdlbbrRsZrhQuUBlLO-14" edge="1">
          <mxGeometry relative="1" as="geometry" />
        </mxCell>
        <mxCell id="2fUdlbbrRsZrhQuUBlLO-8" value="Iron Age" style="whiteSpace=wrap;html=1;rounded=1;" parent="WIyWlLk6GJQsqaUBKTNV-1" vertex="1">
          <mxGeometry x="560" y="60" width="120" height="40" as="geometry" />
        </mxCell>
        <mxCell id="2fUdlbbrRsZrhQuUBlLO-13" value="" style="edgeStyle=orthogonalEdgeStyle;rounded=0;orthogonalLoop=1;jettySize=auto;html=1;entryX=0;entryY=0.5;entryDx=0;entryDy=0;" parent="WIyWlLk6GJQsqaUBKTNV-1" source="2fUdlbbrRsZrhQuUBlLO-10" target="2fUdlbbrRsZrhQuUBlLO-14" edge="1">
          <mxGeometry relative="1" as="geometry">
            <mxPoint x="640" y="160" as="targetPoint" />
          </mxGeometry>
        </mxCell>
        <mxCell id="2fUdlbbrRsZrhQuUBlLO-10" value="&lt;div&gt;Early Electric Age&lt;/div&gt;" style="whiteSpace=wrap;html=1;rounded=1;" parent="WIyWlLk6GJQsqaUBKTNV-1" vertex="1">
          <mxGeometry x="440" y="140" width="120" height="40" as="geometry" />
        </mxCell>
        <mxCell id="2fUdlbbrRsZrhQuUBlLO-14" value="&lt;div&gt;Age 1&lt;/div&gt;&lt;div&gt;Magical Era&lt;/div&gt;" style="whiteSpace=wrap;html=1;aspect=fixed;" parent="WIyWlLk6GJQsqaUBKTNV-1" vertex="1">
          <mxGeometry x="680" y="120" width="80" height="80" as="geometry" />
        </mxCell>
        <mxCell id="2fUdlbbrRsZrhQuUBlLO-28" value="" style="edgeStyle=orthogonalEdgeStyle;rounded=0;orthogonalLoop=1;jettySize=auto;html=1;" parent="WIyWlLk6GJQsqaUBKTNV-1" source="2fUdlbbrRsZrhQuUBlLO-16" target="2fUdlbbrRsZrhQuUBlLO-22" edge="1">
          <mxGeometry relative="1" as="geometry">
            <Array as="points">
              <mxPoint x="230" y="310" />
              <mxPoint x="230" y="310" />
            </Array>
          </mxGeometry>
        </mxCell>
        <mxCell id="2fUdlbbrRsZrhQuUBlLO-16" value="Early Age Progress" style="swimlane;fontStyle=0;childLayout=stackLayout;horizontal=1;startSize=30;horizontalStack=0;resizeParent=1;resizeParentMax=0;resizeLast=0;collapsible=1;marginBottom=0;" parent="WIyWlLk6GJQsqaUBKTNV-1" vertex="1">
          <mxGeometry x="40" y="200" width="140" height="180" as="geometry" />
        </mxCell>
        <mxCell id="2fUdlbbrRsZrhQuUBlLO-17" value="Flint Tools" style="text;strokeColor=none;fillColor=none;align=left;verticalAlign=middle;spacingLeft=4;spacingRight=4;overflow=hidden;points=[[0,0.5],[1,0.5]];portConstraint=eastwest;rotatable=0;" parent="2fUdlbbrRsZrhQuUBlLO-16" vertex="1">
          <mxGeometry y="30" width="140" height="30" as="geometry" />
        </mxCell>
        <mxCell id="2fUdlbbrRsZrhQuUBlLO-18" value="Wood Stripping" style="text;strokeColor=none;fillColor=none;align=left;verticalAlign=middle;spacingLeft=4;spacingRight=4;overflow=hidden;points=[[0,0.5],[1,0.5]];portConstraint=eastwest;rotatable=0;" parent="2fUdlbbrRsZrhQuUBlLO-16" vertex="1">
          <mxGeometry y="60" width="140" height="30" as="geometry" />
        </mxCell>
        <mxCell id="2fUdlbbrRsZrhQuUBlLO-19" value="Leathermaking" style="text;strokeColor=none;fillColor=none;align=left;verticalAlign=middle;spacingLeft=4;spacingRight=4;overflow=hidden;points=[[0,0.5],[1,0.5]];portConstraint=eastwest;rotatable=0;" parent="2fUdlbbrRsZrhQuUBlLO-16" vertex="1">
          <mxGeometry y="90" width="140" height="30" as="geometry" />
        </mxCell>
        <mxCell id="2fUdlbbrRsZrhQuUBlLO-20" value="Campfire" style="text;strokeColor=none;fillColor=none;align=left;verticalAlign=middle;spacingLeft=4;spacingRight=4;overflow=hidden;points=[[0,0.5],[1,0.5]];portConstraint=eastwest;rotatable=0;" parent="2fUdlbbrRsZrhQuUBlLO-16" vertex="1">
          <mxGeometry y="120" width="140" height="30" as="geometry" />
        </mxCell>
        <mxCell id="2fUdlbbrRsZrhQuUBlLO-21" value="First Wand" style="text;strokeColor=none;fillColor=none;align=left;verticalAlign=middle;spacingLeft=4;spacingRight=4;overflow=hidden;points=[[0,0.5],[1,0.5]];portConstraint=eastwest;rotatable=0;" parent="2fUdlbbrRsZrhQuUBlLO-16" vertex="1">
          <mxGeometry y="150" width="140" height="30" as="geometry" />
        </mxCell>
        <mxCell id="2fUdlbbrRsZrhQuUBlLO-22" value="Leathermaking" style="swimlane;fontStyle=0;childLayout=stackLayout;horizontal=1;startSize=30;horizontalStack=0;resizeParent=1;resizeParentMax=0;resizeLast=0;collapsible=1;marginBottom=0;" parent="WIyWlLk6GJQsqaUBKTNV-1" vertex="1">
          <mxGeometry x="260" y="200" width="230" height="180" as="geometry" />
        </mxCell>
        <mxCell id="2fUdlbbrRsZrhQuUBlLO-23" value="Flint Axe to strip bark" style="text;strokeColor=none;fillColor=none;align=left;verticalAlign=middle;spacingLeft=4;spacingRight=4;overflow=hidden;points=[[0,0.5],[1,0.5]];portConstraint=eastwest;rotatable=0;" parent="2fUdlbbrRsZrhQuUBlLO-22" vertex="1">
          <mxGeometry y="30" width="230" height="30" as="geometry" />
        </mxCell>
        <mxCell id="2fUdlbbrRsZrhQuUBlLO-24" value="Oak bark in water -&gt; Tannin" style="text;strokeColor=none;fillColor=none;align=left;verticalAlign=middle;spacingLeft=4;spacingRight=4;overflow=hidden;points=[[0,0.5],[1,0.5]];portConstraint=eastwest;rotatable=0;" parent="2fUdlbbrRsZrhQuUBlLO-22" vertex="1">
          <mxGeometry y="60" width="230" height="30" as="geometry" />
        </mxCell>
        <mxCell id="2fUdlbbrRsZrhQuUBlLO-25" value="Animals drop &lt;Sized&gt; Pelts" style="text;strokeColor=none;fillColor=none;align=left;verticalAlign=middle;spacingLeft=4;spacingRight=4;overflow=hidden;points=[[0,0.5],[1,0.5]];portConstraint=eastwest;rotatable=0;" parent="2fUdlbbrRsZrhQuUBlLO-22" vertex="1">
          <mxGeometry y="90" width="230" height="30" as="geometry" />
        </mxCell>
        <mxCell id="2fUdlbbrRsZrhQuUBlLO-26" value="Pelt in Tannin -&gt; Prepared Pelt" style="text;strokeColor=none;fillColor=none;align=left;verticalAlign=middle;spacingLeft=4;spacingRight=4;overflow=hidden;points=[[0,0.5],[1,0.5]];portConstraint=eastwest;rotatable=0;" parent="2fUdlbbrRsZrhQuUBlLO-22" vertex="1">
          <mxGeometry y="120" width="230" height="30" as="geometry" />
        </mxCell>
        <mxCell id="2fUdlbbrRsZrhQuUBlLO-27" value="Prepared Pelt on Campfire -&gt; Leather" style="text;strokeColor=none;fillColor=none;align=left;verticalAlign=middle;spacingLeft=4;spacingRight=4;overflow=hidden;points=[[0,0.5],[1,0.5]];portConstraint=eastwest;rotatable=0;" parent="2fUdlbbrRsZrhQuUBlLO-22" vertex="1">
          <mxGeometry y="150" width="230" height="30" as="geometry" />
        </mxCell>
      </root>
    </mxGraphModel>
  </diagram>
  <diagram id="9ME-OyZdoubxCk4PVZ4c" name="Magic harvesting tools">
    <mxGraphModel dx="1182" dy="732" grid="1" gridSize="10" guides="1" tooltips="1" connect="1" arrows="1" fold="1" page="1" pageScale="1" pageWidth="850" pageHeight="1100" math="0" shadow="0">
      <root>
        <mxCell id="0" />
        <mxCell id="1" parent="0" />
        <mxCell id="gCie6b_OW1F46oA7DasX-1" value="Magic &lt;br&gt;harvesting &lt;br&gt;gear" style="rounded=1;whiteSpace=wrap;html=1;" parent="1" vertex="1">
          <mxGeometry x="365" y="150" width="120" height="60" as="geometry" />
        </mxCell>
        <mxCell id="gCie6b_OW1F46oA7DasX-12" value="Ideas and goal &#xa;of these items" style="swimlane;fontStyle=0;childLayout=stackLayout;horizontal=1;startSize=40;horizontalStack=0;resizeParent=1;resizeParentMax=0;resizeLast=0;collapsible=1;marginBottom=0;" parent="1" vertex="1">
          <mxGeometry x="30" width="560" height="130" as="geometry" />
        </mxCell>
        <mxCell id="gCie6b_OW1F46oA7DasX-13" value="&quot;Long path magic&quot; where the player needs to progress in gathering and crafting to gain power" style="text;strokeColor=none;fillColor=none;align=left;verticalAlign=middle;spacingLeft=4;spacingRight=4;overflow=hidden;points=[[0,0.5],[1,0.5]];portConstraint=eastwest;rotatable=0;" parent="gCie6b_OW1F46oA7DasX-12" vertex="1">
          <mxGeometry y="40" width="560" height="30" as="geometry" />
        </mxCell>
        <mxCell id="gCie6b_OW1F46oA7DasX-14" value="Harvesting tools that grow with the progression of the player that require sacrifice and effort" style="text;strokeColor=none;fillColor=none;align=left;verticalAlign=middle;spacingLeft=4;spacingRight=4;overflow=hidden;points=[[0,0.5],[1,0.5]];portConstraint=eastwest;rotatable=0;" parent="gCie6b_OW1F46oA7DasX-12" vertex="1">
          <mxGeometry y="70" width="560" height="30" as="geometry" />
        </mxCell>
        <mxCell id="gCie6b_OW1F46oA7DasX-15" value="unorthadox gathering methods to give the pack a feeling of magic rather than just tech by another name" style="text;strokeColor=none;fillColor=none;align=left;verticalAlign=middle;spacingLeft=4;spacingRight=4;overflow=hidden;points=[[0,0.5],[1,0.5]];portConstraint=eastwest;rotatable=0;" parent="gCie6b_OW1F46oA7DasX-12" vertex="1">
          <mxGeometry y="100" width="560" height="30" as="geometry" />
        </mxCell>
        <mxCell id="gCie6b_OW1F46oA7DasX-21" value="teir progression" style="swimlane;fontStyle=0;childLayout=stackLayout;horizontal=1;startSize=30;horizontalStack=0;resizeParent=1;resizeParentMax=0;resizeLast=0;collapsible=1;marginBottom=0;" parent="1" vertex="1">
          <mxGeometry x="680" width="140" height="180" as="geometry" />
        </mxCell>
        <mxCell id="gCie6b_OW1F46oA7DasX-23" value="Leather&#xa;&#xa;Copper&#xa;&#xa;Iron&#xa;&#xa;Crystal?&#xa;&#xa;Magic metal?" style="text;strokeColor=none;fillColor=none;align=left;verticalAlign=middle;spacingLeft=4;spacingRight=4;overflow=hidden;points=[[0,0.5],[1,0.5]];portConstraint=eastwest;rotatable=0;" parent="gCie6b_OW1F46oA7DasX-21" vertex="1">
          <mxGeometry y="30" width="140" height="150" as="geometry" />
        </mxCell>
        <mxCell id="gCie6b_OW1F46oA7DasX-25" value="leather Teir" style="swimlane;horizontal=0;fillColor=#d5e8d4;strokeColor=#82b366;" parent="1" vertex="1">
          <mxGeometry y="220" width="840" height="240" as="geometry" />
        </mxCell>
        <mxCell id="gCie6b_OW1F46oA7DasX-27" value="Magic proof gloves" style="swimlane;fontStyle=0;childLayout=stackLayout;horizontal=1;startSize=30;horizontalStack=0;resizeParent=1;resizeParentMax=0;resizeLast=0;collapsible=1;marginBottom=0;" parent="gCie6b_OW1F46oA7DasX-25" vertex="1">
          <mxGeometry x="190" width="150" height="230" as="geometry" />
        </mxCell>
        <mxCell id="gCie6b_OW1F46oA7DasX-28" value="start with leather glove&#xa;needed to harvest magic &#xa;tannin" style="text;strokeColor=none;fillColor=none;align=left;verticalAlign=middle;spacingLeft=4;spacingRight=4;overflow=hidden;points=[[0,0.5],[1,0.5]];portConstraint=eastwest;rotatable=0;" parent="gCie6b_OW1F46oA7DasX-27" vertex="1">
          <mxGeometry y="30" width="150" height="60" as="geometry" />
        </mxCell>
        <mxCell id="gCie6b_OW1F46oA7DasX-29" value="Use magic tannin to make&#xa; magic sealed leather" style="text;strokeColor=none;fillColor=none;align=left;verticalAlign=middle;spacingLeft=4;spacingRight=4;overflow=hidden;points=[[0,0.5],[1,0.5]];portConstraint=eastwest;rotatable=0;" parent="gCie6b_OW1F46oA7DasX-27" vertex="1">
          <mxGeometry y="90" width="150" height="40" as="geometry" />
        </mxCell>
        <mxCell id="gCie6b_OW1F46oA7DasX-30" value="use magic sealed leather to&#xa; make magic proof gloves" style="text;strokeColor=none;fillColor=none;align=left;verticalAlign=middle;spacingLeft=4;spacingRight=4;overflow=hidden;points=[[0,0.5],[1,0.5]];portConstraint=eastwest;rotatable=0;" parent="gCie6b_OW1F46oA7DasX-27" vertex="1">
          <mxGeometry y="130" width="150" height="50" as="geometry" />
        </mxCell>
        <mxCell id="gCie6b_OW1F46oA7DasX-31" value="Magic proof gloves allow &#xa;handling of magic materials" style="text;strokeColor=none;fillColor=none;align=left;verticalAlign=middle;spacingLeft=4;spacingRight=4;overflow=hidden;points=[[0,0.5],[1,0.5]];portConstraint=eastwest;rotatable=0;" parent="gCie6b_OW1F46oA7DasX-27" vertex="1">
          <mxGeometry y="180" width="150" height="50" as="geometry" />
        </mxCell>
        <mxCell id="gCie6b_OW1F46oA7DasX-32" value="Log stripping and leather" style="swimlane;fontStyle=0;childLayout=stackLayout;horizontal=1;startSize=30;horizontalStack=0;resizeParent=1;resizeParentMax=0;resizeLast=0;collapsible=1;marginBottom=0;" parent="gCie6b_OW1F46oA7DasX-25" vertex="1">
          <mxGeometry x="360" width="170" height="230" as="geometry" />
        </mxCell>
        <mxCell id="gCie6b_OW1F46oA7DasX-33" value="collect tannin to make leather" style="text;strokeColor=none;fillColor=none;align=left;verticalAlign=middle;spacingLeft=4;spacingRight=4;overflow=hidden;points=[[0,0.5],[1,0.5]];portConstraint=eastwest;rotatable=0;" parent="gCie6b_OW1F46oA7DasX-32" vertex="1">
          <mxGeometry y="30" width="170" height="30" as="geometry" />
        </mxCell>
        <mxCell id="gCie6b_OW1F46oA7DasX-34" value="essence Tannin with gloves" style="text;strokeColor=none;fillColor=none;align=left;verticalAlign=middle;spacingLeft=4;spacingRight=4;overflow=hidden;points=[[0,0.5],[1,0.5]];portConstraint=eastwest;rotatable=0;" parent="gCie6b_OW1F46oA7DasX-32" vertex="1">
          <mxGeometry y="60" width="170" height="30" as="geometry" />
        </mxCell>
        <mxCell id="gCie6b_OW1F46oA7DasX-35" value="Leather can be made magic sealed leather for armor and tool crafting" style="text;strokeColor=none;fillColor=none;align=left;verticalAlign=middle;spacingLeft=4;spacingRight=4;overflow=hidden;points=[[0,0.5],[1,0.5]];portConstraint=eastwest;rotatable=0;whiteSpace=wrap;" parent="gCie6b_OW1F46oA7DasX-32" vertex="1">
          <mxGeometry y="90" width="170" height="60" as="geometry" />
        </mxCell>
        <mxCell id="gCie6b_OW1F46oA7DasX-36" value="Magic sealed leather will be used for continued crafting through the pack. might need streamlined?" style="text;strokeColor=none;fillColor=none;align=left;verticalAlign=middle;spacingLeft=4;spacingRight=4;overflow=hidden;points=[[0,0.5],[1,0.5]];portConstraint=eastwest;rotatable=0;whiteSpace=wrap;" parent="gCie6b_OW1F46oA7DasX-32" vertex="1">
          <mxGeometry y="150" width="170" height="80" as="geometry" />
        </mxCell>
        <mxCell id="gCie6b_OW1F46oA7DasX-42" value="Materials for this teir" style="swimlane;fontStyle=0;childLayout=stackLayout;horizontal=1;startSize=30;horizontalStack=0;resizeParent=1;resizeParentMax=0;resizeLast=0;collapsible=1;marginBottom=0;" parent="gCie6b_OW1F46oA7DasX-25" vertex="1">
          <mxGeometry x="40" y="20" width="140" height="200" as="geometry" />
        </mxCell>
        <mxCell id="gCie6b_OW1F46oA7DasX-43" value="Animal hide&#xa;&#xa;Tanin&#xa;&#xa;Leather &#xa;&#xa;magic tannin&#xa;&#xa;Magic sealed leather&#xa;" style="text;strokeColor=none;fillColor=none;align=left;verticalAlign=middle;spacingLeft=4;spacingRight=4;overflow=hidden;points=[[0,0.5],[1,0.5]];portConstraint=eastwest;rotatable=0;" parent="gCie6b_OW1F46oA7DasX-42" vertex="1">
          <mxGeometry y="30" width="140" height="170" as="geometry" />
        </mxCell>
        <mxCell id="gCie6b_OW1F46oA7DasX-37" value="Copper teir" style="swimlane;horizontal=0;" parent="1" vertex="1">
          <mxGeometry y="480" width="840" height="240" as="geometry" />
        </mxCell>
        <mxCell id="gCie6b_OW1F46oA7DasX-38" value="Gloves" style="swimlane;fontStyle=0;childLayout=stackLayout;horizontal=1;startSize=30;horizontalStack=0;resizeParent=1;resizeParentMax=0;resizeLast=0;collapsible=1;marginBottom=0;" parent="gCie6b_OW1F46oA7DasX-37" vertex="1">
          <mxGeometry x="190" width="130" height="60" as="geometry" />
        </mxCell>
        <mxCell id="gCie6b_OW1F46oA7DasX-41" value="no changes this tier" style="text;strokeColor=none;fillColor=none;align=left;verticalAlign=middle;spacingLeft=4;spacingRight=4;overflow=hidden;points=[[0,0.5],[1,0.5]];portConstraint=eastwest;rotatable=0;" parent="gCie6b_OW1F46oA7DasX-38" vertex="1">
          <mxGeometry y="30" width="130" height="30" as="geometry" />
        </mxCell>
        <mxCell id="gCie6b_OW1F46oA7DasX-46" value="Materials this tier" style="swimlane;fontStyle=0;childLayout=stackLayout;horizontal=1;startSize=30;horizontalStack=0;resizeParent=1;resizeParentMax=0;resizeLast=0;collapsible=1;marginBottom=0;" parent="gCie6b_OW1F46oA7DasX-37" vertex="1">
          <mxGeometry x="40" width="140" height="240" as="geometry" />
        </mxCell>
        <mxCell id="gCie6b_OW1F46oA7DasX-47" value="Copper blade&#xa;&#xa;sealed leather handle&#xa;(stick + sealed leather)&#xa;&#xa;Copper hammer head&#xa;&#xa;Copper wand core&#xa;&#xa;Wand shell&#xa;&#xa;mana plant fibers&#xa;&#xa;Crude whetstone" style="text;strokeColor=none;fillColor=none;align=left;verticalAlign=middle;spacingLeft=4;spacingRight=4;overflow=hidden;points=[[0,0.5],[1,0.5]];portConstraint=eastwest;rotatable=0;" parent="gCie6b_OW1F46oA7DasX-46" vertex="1">
          <mxGeometry y="30" width="140" height="210" as="geometry" />
        </mxCell>
        <mxCell id="gCie6b_OW1F46oA7DasX-50" value="Copper knife" style="swimlane;fontStyle=0;childLayout=stackLayout;horizontal=1;startSize=30;horizontalStack=0;resizeParent=1;resizeParentMax=0;resizeLast=0;collapsible=1;marginBottom=0;" parent="gCie6b_OW1F46oA7DasX-37" vertex="1">
          <mxGeometry x="340" width="240" height="220" as="geometry" />
        </mxCell>
        <mxCell id="gCie6b_OW1F46oA7DasX-51" value="a copper blade can be be combined with a handle to make a knife" style="text;strokeColor=none;fillColor=none;align=left;verticalAlign=middle;spacingLeft=4;spacingRight=4;overflow=hidden;points=[[0,0.5],[1,0.5]];portConstraint=eastwest;rotatable=0;whiteSpace=wrap;" parent="gCie6b_OW1F46oA7DasX-50" vertex="1">
          <mxGeometry y="30" width="240" height="40" as="geometry" />
        </mxCell>
        <mxCell id="gCie6b_OW1F46oA7DasX-54" value="while wearing gloves, using the knife on grass or leaves gets mana plant fiber." style="text;strokeColor=none;fillColor=none;align=left;verticalAlign=middle;spacingLeft=4;spacingRight=4;overflow=hidden;points=[[0,0.5],[1,0.5]];portConstraint=eastwest;rotatable=0;whiteSpace=wrap;" parent="gCie6b_OW1F46oA7DasX-50" vertex="1">
          <mxGeometry y="70" width="240" height="40" as="geometry" />
        </mxCell>
        <mxCell id="gCie6b_OW1F46oA7DasX-52" value="mixing sand, magic plant fibers and clay to make a crude whetstone" style="text;strokeColor=none;fillColor=none;align=left;verticalAlign=middle;spacingLeft=4;spacingRight=4;overflow=hidden;points=[[0,0.5],[1,0.5]];portConstraint=eastwest;rotatable=0;whiteSpace=wrap;" parent="gCie6b_OW1F46oA7DasX-50" vertex="1">
          <mxGeometry y="110" width="240" height="40" as="geometry" />
        </mxCell>
        <mxCell id="gCie6b_OW1F46oA7DasX-53" value="Sharpen the knife at the cost of one heart and one food per grind.requires 10 grinds to make a knife into a mana shapened knife." style="text;strokeColor=none;fillColor=none;align=left;verticalAlign=middle;spacingLeft=4;spacingRight=4;overflow=hidden;points=[[0,0.5],[1,0.5]];portConstraint=eastwest;rotatable=0;whiteSpace=wrap;" parent="gCie6b_OW1F46oA7DasX-50" vertex="1">
          <mxGeometry y="150" width="240" height="70" as="geometry" />
        </mxCell>
      </root>
    </mxGraphModel>
  </diagram>
  <diagram id="oRfdpO1Y5cQADWCSgjQO" name="Other mods">
    <mxGraphModel dx="1182" dy="732" grid="1" gridSize="10" guides="1" tooltips="1" connect="1" arrows="1" fold="1" page="1" pageScale="1" pageWidth="850" pageHeight="1100" math="0" shadow="0">
      <root>
        <mxCell id="0" />
        <mxCell id="1" parent="0" />
        <mxCell id="zB-ZJ9l0Zlo3b4ZMMvqf-1" value="&lt;div&gt;Ultimine Integration&lt;/div&gt;&lt;div&gt;+Allows FTBUltimine to be gated behind an enchantment&lt;/div&gt;&lt;div&gt;-Can easily be done through Vein Mining mod (reduces mod count)&lt;/div&gt;&lt;div&gt;-Reviewing code: easily implemented&lt;/div&gt;&lt;div&gt;&lt;br&gt;&lt;/div&gt;&lt;div&gt;Drink Beer&lt;/div&gt;&lt;div&gt;+Brewing mechanic could be worked into progression&lt;/div&gt;&lt;div&gt;-Only available for 1.18.2 by compiling the source (not available as a .jar)&lt;/div&gt;&lt;div&gt;Alcocraft&lt;/div&gt;&lt;div&gt;+Keg brewing (can add recipes via .addJsonRecipe())&lt;/div&gt;&lt;div&gt;-BRAND NEW, just released on June 1&lt;br&gt;&lt;/div&gt;&lt;div&gt;&lt;br&gt;&lt;/div&gt;&lt;div&gt;Public GUI Announcements&lt;/div&gt;&lt;div&gt;+Lets you see when a player is in a GUI&lt;/div&gt;&lt;div&gt;&lt;br&gt;&lt;/div&gt;&lt;div&gt;Immersive Weathering&lt;/div&gt;&lt;div&gt;+Weathering effects on many vanilla blocks&lt;/div&gt;&lt;div&gt;-Doesn&#39;t support modded blocks&lt;/div&gt;&lt;div&gt;&lt;br&gt;&lt;/div&gt;&lt;div&gt;Plonk&lt;/div&gt;&lt;div&gt;+A MUST!&lt;/div&gt;&lt;div&gt;&lt;br&gt;&lt;/div&gt;&lt;div&gt;&lt;br&gt;&lt;/div&gt;" style="text;html=1;strokeColor=none;fillColor=none;align=left;verticalAlign=top;whiteSpace=wrap;rounded=0;" vertex="1" parent="1">
          <mxGeometry x="40" y="20" width="760" height="470" as="geometry" />
        </mxCell>
      </root>
    </mxGraphModel>
  </diagram>
</mxfile>
